<svg xmlns="http://www.w3.org/2000/svg" width="239" height="39" fill="currentColor" viewBox="0 0 239 39">
  <path d="M87.224 38V2.96h21.024v5.28h-15.12v9.12h13.44v5.088h-13.44V32.72h15.12V38H87.224Zm34.157.48c-2.56 0-4.64-.912-6.24-2.736-1.568-1.824-2.352-4.272-2.352-7.344v-7.152c0-3.104.784-5.568 2.352-7.392 1.6-1.824 3.68-2.736 6.24-2.736 2.368 0 4.24.752 5.616 2.256 1.376 1.472 2.064 3.488 2.064 6.048l-1.776-2.496h1.392l-.192-6.576V2.96h6V38h-5.856v-5.328h-1.344l1.728-2.496c0 2.56-.688 4.592-2.064 6.096-1.344 1.472-3.2 2.208-5.568 2.208Zm2.256-5.184c1.536 0 2.72-.464 3.552-1.392.864-.928 1.296-2.24 1.296-3.936v-6.336c0-1.696-.432-3.008-1.296-3.936-.832-.928-2.016-1.392-3.552-1.392s-2.736.416-3.6 1.248c-.832.832-1.248 2.112-1.248 3.84v6.816c0 1.696.416 2.976 1.248 3.84.864.832 2.064 1.248 3.6 1.248ZM140.131 38v-5.424h9.024V17.024h-8.064V11.6h14.064v20.976h8.112V38h-23.136Zm11.616-30.816c-1.216 0-2.176-.304-2.88-.912-.704-.64-1.056-1.488-1.056-2.544s.352-1.888 1.056-2.496c.704-.64 1.664-.96 2.88-.96s2.176.32 2.88.96c.704.608 1.056 1.44 1.056 2.496s-.352 1.904-1.056 2.544c-.704.608-1.664.912-2.88.912ZM176.544 38c-2.464 0-4.432-.704-5.904-2.112-1.44-1.44-2.16-3.376-2.16-5.808V17.024h-7.296V11.6h7.296V4.16h6.048v7.44h10.512v5.424h-10.512v12.912c0 .768.208 1.408.624 1.92.448.48 1.056.72 1.824.72h7.824V38h-8.256Zm23.021.432c-2.24 0-4.192-.432-5.856-1.296-1.664-.864-2.944-2.08-3.84-3.648-.896-1.6-1.344-3.472-1.344-5.616v-6.144c0-2.176.448-4.048 1.344-5.616.896-1.568 2.176-2.784 3.84-3.648 1.664-.864 3.616-1.296 5.856-1.296 2.272 0 4.224.432 5.856 1.296 1.664.864 2.944 2.08 3.84 3.648.896 1.568 1.344 3.44 1.344 5.616v6.144c0 2.144-.448 4.016-1.344 5.616-.896 1.568-2.176 2.784-3.84 3.648-1.632.864-3.584 1.296-5.856 1.296Zm0-5.232c1.6 0 2.832-.432 3.696-1.296.896-.896 1.344-2.176 1.344-3.84v-6.528c0-1.696-.448-2.976-1.344-3.84-.864-.864-2.096-1.296-3.696-1.296-1.568 0-2.8.432-3.696 1.296-.896.864-1.344 2.144-1.344 3.84v6.528c0 1.664.448 2.944 1.344 3.84.896.864 2.128 1.296 3.696 1.296Zm17.357 4.8V11.6h5.856v5.328h1.632l-1.776 1.44c0-2.24.656-4 1.968-5.28 1.344-1.312 3.168-1.968 5.472-1.968 2.688 0 4.784.864 6.288 2.592 1.504 1.728 2.256 4.144 2.256 7.248v2.496h-6v-2.208c0-1.632-.416-2.864-1.248-3.696-.832-.832-2.016-1.248-3.552-1.248-1.568 0-2.784 1.48-3.648 2.44-.832.96-1.248 2.643-1.248 4.08V38h-6Z"/>
  <path fill-rule="evenodd" d="M9.27 10.594H.01V38h7.28V22.049h.214l6.102 15.737h4.389l6.102-15.63h.214V38h7.28V10.594h-9.26l-6.37 15.523h-.321L9.27 10.594ZM35.117 38h10.545c2.783 0 5.197-.544 7.24-1.633a11.478 11.478 0 0 0 4.737-4.71c1.115-2.052 1.672-4.505 1.672-7.36 0-2.855-.562-5.304-1.686-7.347a11.335 11.335 0 0 0-4.764-4.71c-2.051-1.097-4.487-1.646-7.306-1.646H35.117V38Zm30.148-27.406 4.497 7.976h.214l4.55-7.976h8.296l-8.19 13.703L83.144 38h-8.51l-4.657-8.136h-.214L65.105 38h-8.458l8.404-13.703-8.136-13.703h8.35Zm-12.957 12.21v4.94h3.245l-8.635 5.546-8.636-5.547h3.245v-7.196a3.883 3.883 0 0 0-2.853-3.744h7.634a6 6 0 0 1 6 6Z" clip-rule="evenodd"/>
</svg>
