<?xml version="1.0" standalone="no"?>
<!DOCTYPE svg PUBLIC "-//W3C//DTD SVG 20010904//EN"
 "http://www.w3.org/TR/2001/REC-SVG-20010904/DTD/svg10.dtd">
<svg version="1.0" xmlns="http://www.w3.org/2000/svg"
 width="700.000000pt" height="700.000000pt" viewBox="0 0 700.000000 700.000000"
 preserveAspectRatio="xMidYMid meet">
<metadata>
Created by potrace 1.14, written by Peter Selinger 2001-2017
</metadata>
<g transform="translate(0.000000,700.000000) scale(0.100000,-0.100000)"
fill="#000000" stroke="none">
<path d="M1031 6270 c-5 -3 -8 -1245 -7 -2760 l1 -2755 1165 1 c1053 0 1306 4
1415 19 19 3 50 7 68 9 150 20 140 19 227 35 30 6 65 13 77 15 42 8 208 55
289 81 743 242 1300 791 1547 1525 63 185 113 407 133 582 3 29 8 64 10 78 23
138 23 667 0 821 -2 13 -7 49 -11 79 -16 139 -45 287 -82 415 -14 50 -26 97
-28 105 -10 49 -87 236 -150 365 -235 479 -575 823 -1056 1068 -255 130 -543
225 -814 267 -38 6 -81 13 -95 15 -58 10 -169 21 -315 31 -122 8 -2363 12
-2374 4z m2410 -1255 c41 -4 81 -9 89 -11 8 -2 31 -6 50 -9 64 -12 212 -65
294 -106 354 -179 602 -522 657 -911 7 -55 11 -265 12 -620 l0 -538 329 -2
329 -3 -150 -95 c-83 -52 -176 -111 -206 -130 -94 -60 -227 -144 -262 -165
-36 -22 -347 -218 -428 -271 -42 -27 -239 -151 -634 -401 -72 -45 -87 -51
-100 -40 -9 7 -65 44 -126 82 -60 37 -132 83 -160 100 -27 18 -106 67 -175
110 -69 43 -169 107 -223 142 -53 35 -102 63 -107 63 -6 0 -10 3 -10 8 0 4 -9
12 -20 17 -10 6 -51 30 -90 55 -39 25 -82 52 -96 60 -77 48 -545 344 -634 402
l-105 68 330 2 330 3 -1 775 c-1 765 -1 776 -23 855 -46 167 -129 300 -255
406 -68 58 -233 149 -269 149 -9 0 -17 3 -17 8 0 9 1572 7 1671 -3z"/>
</g>
</svg>
