<svg width="20" height="21" viewBox="0 0 20 21" fill="none" xmlns="http://www.w3.org/2000/svg">
<mask id="mask0_347_144" style="mask-type:alpha" maskUnits="userSpaceOnUse" x="0" y="0" width="20" height="21">
<rect y="0.5" width="20" height="20" fill="#D9D9D9"/>
</mask>
<g mask="url(#mask0_347_144)">
<path d="M9.99965 12.9583C9.88854 12.9583 9.7809 12.9375 9.67673 12.8958C9.57257 12.8542 9.47187 12.7847 9.37465 12.6875L5.60382 8.91667C5.43715 8.75 5.36076 8.54167 5.37465 8.29167C5.38854 8.04167 5.47187 7.84028 5.62465 7.6875C5.80521 7.50694 6.01354 7.42014 6.24965 7.42708C6.48576 7.43403 6.68715 7.52083 6.85382 7.6875L9.99965 10.8542L13.1663 7.6875C13.333 7.52083 13.5309 7.4375 13.7601 7.4375C13.9892 7.4375 14.1941 7.52778 14.3747 7.70833C14.5413 7.875 14.6247 8.07986 14.6247 8.32292C14.6247 8.56597 14.5413 8.77083 14.3747 8.9375L10.6246 12.6875C10.5274 12.7847 10.4267 12.8542 10.3226 12.8958C10.2184 12.9375 10.1108 12.9583 9.99965 12.9583Z" fill="black"/>
</g>
</svg>
