<svg width="20" height="20" viewBox="0 0 20 20" fill="none" xmlns="http://www.w3.org/2000/svg">
<mask id="mask0_347_156" style="mask-type:alpha" maskUnits="userSpaceOnUse" x="0" y="0" width="20" height="20">
<rect width="20" height="20" fill="#D9D9D9"/>
</mask>
<g mask="url(#mask0_347_156)">
<path d="M5.625 12.1875C5.45833 12.0208 5.375 11.816 5.375 11.5729C5.375 11.3299 5.45833 11.125 5.625 10.9583L9.375 7.20833C9.47222 7.11111 9.57292 7.04167 9.67708 7C9.78125 6.95833 9.88889 6.9375 10 6.9375C10.1111 6.9375 10.2188 6.95833 10.3229 7C10.4271 7.04167 10.5278 7.11111 10.625 7.20833L14.3958 10.9792C14.5625 11.1458 14.6493 11.3438 14.6562 11.5729C14.6632 11.8021 14.5764 12.0069 14.3958 12.1875C14.2292 12.3542 14.0243 12.4375 13.7812 12.4375C13.5382 12.4375 13.3333 12.3542 13.1667 12.1875L10 9.04167L6.83333 12.2083C6.66667 12.375 6.46875 12.4583 6.23958 12.4583C6.01042 12.4583 5.80556 12.3681 5.625 12.1875Z" fill="black"/>
</g>
</svg>
