<svg width="20" height="20" viewBox="0 0 20 20" fill="none" xmlns="http://www.w3.org/2000/svg">
<mask id="mask0_355_77" style="mask-type:alpha" maskUnits="userSpaceOnUse" x="0" y="0" width="20" height="20">
<rect width="20" height="20" fill="#D9D9D9"/>
</mask>
<g mask="url(#mask0_355_77)">
<path d="M9.45866 13.7916H10.542V9H9.45866V13.7916ZM9.99591 7.7404C10.1618 7.7404 10.3023 7.68431 10.4174 7.57212C10.5325 7.45993 10.59 7.32091 10.59 7.15506C10.59 6.98922 10.5339 6.84873 10.4217 6.7336C10.3096 6.61849 10.1705 6.56094 10.0047 6.56094C9.83884 6.56094 9.69835 6.61703 9.58324 6.72923C9.46813 6.84142 9.41058 6.98044 9.41058 7.14629C9.41058 7.31214 9.46667 7.45262 9.57887 7.56773C9.69105 7.68284 9.83006 7.7404 9.99591 7.7404ZM10.0075 17.5833C8.96423 17.5833 7.98173 17.386 7.05995 16.9912C6.13816 16.5965 5.33134 16.0534 4.63949 15.3619C3.94763 14.6703 3.40425 13.8642 3.00935 12.9434C2.61444 12.0226 2.41699 11.0388 2.41699 9.99185C2.41699 8.94494 2.61435 7.96406 3.00908 7.04923C3.4038 6.13438 3.94692 5.33104 4.63845 4.63919C5.32999 3.94733 6.13615 3.40394 7.05693 3.00904C7.97771 2.61414 8.96155 2.41669 10.0085 2.41669C11.0554 2.41669 12.0362 2.61405 12.9511 3.00877C13.8659 3.40349 14.6693 3.94662 15.3611 4.63815C16.053 5.32969 16.5964 6.13422 16.9913 7.05175C17.3862 7.96928 17.5836 8.94965 17.5836 9.99285C17.5836 11.0361 17.3863 12.0186 16.9915 12.9404C16.5968 13.8621 16.0537 14.669 15.3622 15.3608C14.6706 16.0527 13.8661 16.5961 12.9486 16.991C12.031 17.3859 11.0507 17.5833 10.0075 17.5833ZM10.0003 16.5C11.8059 16.5 13.3406 15.8681 14.6045 14.6042C15.8684 13.3403 16.5003 11.8056 16.5003 10C16.5003 8.19444 15.8684 6.65972 14.6045 5.39583C13.3406 4.13194 11.8059 3.5 10.0003 3.5C8.19475 3.5 6.66003 4.13194 5.39614 5.39583C4.13225 6.65972 3.5003 8.19444 3.5003 10C3.5003 11.8056 4.13225 13.3403 5.39614 14.6042C6.66003 15.8681 8.19475 16.5 10.0003 16.5Z" fill="black"/>
</g>
</svg>
